<svg width="180" height="52" viewBox="0 0 180 52" fill="none" xmlns="http://www.w3.org/2000/svg">
<path d="M179 46.0031C179 48.7742 176.709 51.0189 173.874 51.0189H6.13243C3.2995 51.0189 1 48.7742 1 46.0031V6.00351C1 3.23368 3.2995 0.98114 6.13243 0.98114H173.873C176.709 0.98114 178.999 3.23368 178.999 6.00351L179 46.0031Z" fill="black"/>
<path d="M173.333 1.04162C176.42 1.04162 178.932 3.4905 178.932 6.5V45.5C178.932 48.5095 176.42 50.9584 173.333 50.9584H6.66667C3.58 50.9584 1.06833 48.5095 1.06833 45.5V6.5C1.06833 3.4905 3.58 1.04162 6.66667 1.04162H173.333ZM173.333 2.74817e-06H6.66667C3.00167 2.74817e-06 0 2.92663 0 6.5V45.5C0 49.0734 3.00167 52 6.66667 52H173.333C176.998 52 180 49.0734 180 45.5V6.5C180 2.92663 176.998 2.74817e-06 173.333 2.74817e-06Z" fill="#A6A6A6"/>
<path d="M40.1707 25.7192C40.132 21.5293 43.6894 19.4909 43.852 19.396C41.8374 16.5321 38.7147 16.1408 37.6174 16.1096C34.9947 15.8405 32.4507 17.6397 31.1147 17.6397C29.752 17.6397 27.6947 16.1356 25.4774 16.1798C22.624 16.2227 19.9547 17.8334 18.4907 20.3346C15.4694 25.4345 17.7227 32.929 20.6174 37.0513C22.0654 39.0702 23.7574 41.3244 25.972 41.2451C28.1387 41.158 28.948 39.8983 31.5627 39.8983C34.1534 39.8983 34.9134 41.2451 37.172 41.1944C39.4974 41.158 40.9614 39.1664 42.3587 37.1293C44.032 34.8153 44.704 32.5364 44.7307 32.4194C44.676 32.4012 40.2147 30.7411 40.1707 25.7192Z" fill="white"/>
<path d="M35.904 13.3978C37.0694 11.9769 37.8667 10.0438 37.6454 8.08209C35.9587 8.15489 33.8494 9.21959 32.6347 10.6093C31.56 11.8339 30.6 13.8411 30.848 15.7287C32.7427 15.8665 34.688 14.7966 35.904 13.3978Z" fill="white"/>
<path d="M64.1653 13.0117C64.1653 14.5418 63.6947 15.6936 62.7547 16.4671C61.884 17.1808 60.6467 17.5383 59.044 17.5383C58.2493 17.5383 57.5693 17.5045 57 17.4369V9.07664C57.7427 8.95964 58.5427 8.89984 59.4067 8.89984C60.9333 8.89984 62.084 9.22354 62.86 9.87094C63.7293 10.6028 64.1653 11.6493 64.1653 13.0117ZM62.692 13.0494C62.692 12.0575 62.4227 11.297 61.884 10.7666C61.3453 10.2375 60.5587 9.97234 59.5227 9.97234C59.0827 9.97234 58.708 10.0009 58.3973 10.0607V16.4164C58.5693 16.4424 58.884 16.4541 59.3413 16.4541C60.4107 16.4541 61.236 16.1642 61.8173 15.5844C62.3987 15.0046 62.692 14.1596 62.692 13.0494Z" fill="white"/>
<path d="M71.9773 14.3482C71.9773 15.2907 71.7013 16.0629 71.1493 16.6687C70.5706 17.2914 69.804 17.6021 68.8466 17.6021C67.924 17.6021 67.1893 17.3044 66.6413 16.7064C66.0946 16.1097 65.8213 15.357 65.8213 14.4496C65.8213 13.5006 66.1026 12.7219 66.668 12.1174C67.2333 11.5129 67.9933 11.21 68.9506 11.21C69.8733 11.21 70.6146 11.5077 71.176 12.1044C71.7093 12.6842 71.9773 13.433 71.9773 14.3482ZM70.528 14.3924C70.528 13.8269 70.4026 13.342 70.1533 12.9377C69.86 12.4489 69.4426 12.2045 68.9 12.2045C68.3386 12.2045 67.912 12.4489 67.6186 12.9377C67.368 13.342 67.244 13.8347 67.244 14.4171C67.244 14.9826 67.3693 15.4675 67.6186 15.8718C67.9213 16.3606 68.3426 16.605 68.8866 16.605C69.42 16.605 69.8386 16.3567 70.14 15.8588C70.3986 15.4467 70.528 14.9579 70.528 14.3924Z" fill="white"/>
<path d="M82.452 11.3347L80.4853 17.4629H79.2053L78.3907 14.8018C78.184 14.1375 78.016 13.4771 77.8853 12.8219H77.86C77.7387 13.4953 77.5707 14.1544 77.3547 14.8018L76.4893 17.4629H75.1947L73.3453 11.3347H74.7813L75.492 14.248C75.664 14.937 75.8053 15.5935 75.9187 16.2149H75.944C76.048 15.7027 76.22 15.0501 76.4627 14.261L77.3547 11.336H78.4933L79.348 14.1986C79.5547 14.8967 79.7227 15.5688 79.852 16.2162H79.8907C79.9853 15.5857 80.128 14.9136 80.3173 14.1986L81.08 11.336H82.452V11.3347Z" fill="white"/>
<path d="M89.696 17.463H88.2986V13.953C88.2986 12.8714 87.8773 12.3306 87.032 12.3306C86.6173 12.3306 86.2826 12.4788 86.0226 12.7765C85.7653 13.0742 85.6346 13.4252 85.6346 13.8269V17.4617H84.2373V13.0859C84.2373 12.5477 84.22 11.964 84.1866 11.3322H85.4146L85.48 12.2903H85.5186C85.6813 11.9926 85.924 11.7469 86.2426 11.5506C86.6213 11.3218 87.0453 11.2061 87.5093 11.2061C88.096 11.2061 88.584 11.3907 88.972 11.7612C89.4546 12.2149 89.696 12.8922 89.696 13.7918V17.463Z" fill="white"/>
<path d="M93.5493 17.4629H92.1533V8.52283H93.5493V17.4629Z" fill="white"/>
<path d="M101.776 14.3482C101.776 15.2907 101.5 16.0629 100.948 16.6687C100.369 17.2914 99.6013 17.6021 98.6453 17.6021C97.7213 17.6021 96.9867 17.3044 96.44 16.7064C95.8933 16.1097 95.62 15.357 95.62 14.4496C95.62 13.5006 95.9013 12.7219 96.4667 12.1174C97.032 11.5129 97.792 11.21 98.748 11.21C99.672 11.21 100.412 11.5077 100.975 12.1044C101.508 12.6842 101.776 13.433 101.776 14.3482ZM100.325 14.3924C100.325 13.8269 100.2 13.342 99.9507 12.9377C99.6587 12.4489 99.24 12.2045 98.6987 12.2045C98.136 12.2045 97.7093 12.4489 97.4173 12.9377C97.1667 13.342 97.0427 13.8347 97.0427 14.4171C97.0427 14.9826 97.168 15.4675 97.4173 15.8718C97.72 16.3606 98.1413 16.605 98.6853 16.605C99.2187 16.605 99.636 16.3567 99.9373 15.8588C100.197 15.4467 100.325 14.9579 100.325 14.3924Z" fill="white"/>
<path d="M108.539 17.463H107.284L107.18 16.7571H107.141C106.712 17.32 106.1 17.6021 105.305 17.6021C104.712 17.6021 104.232 17.4162 103.871 17.047C103.543 16.7116 103.379 16.2943 103.379 15.799C103.379 15.0502 103.699 14.4795 104.343 14.0843C104.985 13.6891 105.889 13.4954 107.053 13.5045V13.3901C107.053 12.5828 106.619 12.1798 105.748 12.1798C105.128 12.1798 104.581 12.3319 104.109 12.6335L103.825 11.7391C104.409 11.3868 105.131 11.21 105.981 11.21C107.624 11.21 108.448 12.055 108.448 13.745V16.0018C108.448 16.6141 108.479 17.1016 108.539 17.463ZM107.088 15.357V14.4119C105.547 14.3859 104.776 14.798 104.776 15.6469C104.776 15.9667 104.864 16.2059 105.044 16.3658C105.224 16.5257 105.453 16.605 105.727 16.605C106.033 16.605 106.32 16.5101 106.581 16.3216C106.844 16.1318 107.005 15.8913 107.065 15.5962C107.08 15.5299 107.088 15.4493 107.088 15.357Z" fill="white"/>
<path d="M116.479 17.4629H115.239L115.173 16.4788H115.135C114.739 17.2276 114.064 17.602 113.116 17.602C112.359 17.602 111.728 17.3121 111.228 16.7323C110.728 16.1525 110.479 15.3998 110.479 14.4755C110.479 13.4836 110.749 12.6802 111.293 12.0666C111.82 11.4946 112.465 11.2086 113.233 11.2086C114.077 11.2086 114.668 11.4855 115.004 12.0406H115.031V8.52283H116.429V15.8119C116.429 16.4086 116.445 16.9585 116.479 17.4629ZM115.031 14.8785V13.8567C115.031 13.6799 115.017 13.5369 114.992 13.4277C114.913 13.1001 114.744 12.8245 114.487 12.6022C114.227 12.3799 113.913 12.2681 113.552 12.2681C113.031 12.2681 112.623 12.4696 112.323 12.8739C112.025 13.2782 111.875 13.7943 111.875 14.4248C111.875 15.0306 112.017 15.522 112.304 15.9003C112.607 16.3033 113.015 16.5048 113.525 16.5048C113.984 16.5048 114.351 16.3371 114.629 16.0004C114.899 15.6897 115.031 15.3153 115.031 14.8785Z" fill="white"/>
<path d="M128.429 14.3482C128.429 15.2907 128.153 16.0629 127.601 16.6687C127.023 17.2914 126.257 17.6021 125.299 17.6021C124.377 17.6021 123.643 17.3044 123.093 16.7064C122.547 16.1097 122.273 15.357 122.273 14.4496C122.273 13.5006 122.555 12.7219 123.12 12.1174C123.685 11.5129 124.445 11.21 125.404 11.21C126.325 11.21 127.068 11.5077 127.628 12.1044C128.161 12.6842 128.429 13.433 128.429 14.3482ZM126.981 14.3924C126.981 13.8269 126.856 13.342 126.607 12.9377C126.312 12.4489 125.896 12.2045 125.352 12.2045C124.792 12.2045 124.365 12.4489 124.071 12.9377C123.82 13.342 123.696 13.8347 123.696 14.4171C123.696 14.9826 123.821 15.4675 124.071 15.8718C124.373 16.3606 124.795 16.605 125.339 16.605C125.872 16.605 126.292 16.3567 126.593 15.8588C126.851 15.4467 126.981 14.9579 126.981 14.3924Z" fill="white"/>
<path d="M135.943 17.463H134.547V13.953C134.547 12.8714 134.125 12.3306 133.279 12.3306C132.864 12.3306 132.529 12.4788 132.271 12.7765C132.012 13.0742 131.883 13.4252 131.883 13.8269V17.4617H130.484V13.0859C130.484 12.5477 130.468 11.964 130.435 11.3322H131.661L131.727 12.2903H131.765C131.929 11.9926 132.172 11.7469 132.489 11.5506C132.869 11.3218 133.292 11.2061 133.757 11.2061C134.343 11.2061 134.831 11.3907 135.219 11.7612C135.703 12.2149 135.943 12.8922 135.943 13.7918V17.463Z" fill="white"/>
<path d="M145.347 12.3552H143.808V15.3322C143.808 16.0888 144.081 16.4671 144.623 16.4671C144.873 16.4671 145.081 16.4463 145.245 16.4034L145.281 17.4369C145.005 17.5383 144.643 17.589 144.196 17.589C143.644 17.589 143.215 17.4252 142.904 17.0976C142.592 16.77 142.437 16.2188 142.437 15.4453V12.3552H141.519V11.3347H142.437V10.2115L143.807 9.80853V11.3334H145.345V12.3552H145.347Z" fill="white"/>
<path d="M152.744 17.4629H151.345V13.9789C151.345 12.8804 150.924 12.3305 150.08 12.3305C149.432 12.3305 148.989 12.649 148.747 13.286C148.705 13.4199 148.681 13.5837 148.681 13.7761V17.4616H147.285V8.52283H148.681V12.2161H148.708C149.148 11.544 149.779 11.2086 150.596 11.2086C151.175 11.2086 151.653 11.3932 152.033 11.7637C152.507 12.2252 152.744 12.9116 152.744 13.819V17.4629Z" fill="white"/>
<path d="M160.375 14.1089C160.375 14.3533 160.356 14.5587 160.323 14.7264H156.132C156.151 15.3322 156.351 15.7937 156.739 16.1135C157.093 16.3995 157.551 16.5425 158.111 16.5425C158.731 16.5425 159.296 16.4463 159.805 16.2526L160.024 17.199C159.428 17.4512 158.727 17.5773 157.915 17.5773C156.941 17.5773 156.175 17.2978 155.62 16.7388C155.063 16.1798 154.787 15.4297 154.787 14.4885C154.787 13.5642 155.044 12.7946 155.563 12.181C156.104 11.5258 156.836 11.1982 157.76 11.1982C158.664 11.1982 159.351 11.5258 159.815 12.181C160.189 12.701 160.375 13.3445 160.375 14.1089ZM159.041 13.7566C159.052 13.3523 158.96 13.0039 158.771 12.7101C158.528 12.3318 158.159 12.142 157.659 12.142C157.203 12.142 156.831 12.3266 156.547 12.6971C156.315 12.9922 156.177 13.3445 156.132 13.7566H159.041Z" fill="white"/>
<path d="M71.98 40.9552H68.952L67.2933 35.8735H61.528L59.948 40.9552H57L62.712 23.6548H66.24L71.98 40.9552ZM66.7933 33.7415L65.2933 29.224C65.1347 28.7625 64.8373 27.6757 64.3987 25.9649H64.3453C64.1707 26.7007 63.8893 27.7875 63.5027 29.224L62.0293 33.7415H66.7933Z" fill="white"/>
<path d="M86.6694 34.5644C86.6694 36.686 86.0814 38.363 84.9054 39.5941C83.852 40.69 82.544 41.2373 80.9827 41.2373C79.2974 41.2373 78.0867 40.6471 77.3494 39.4667H77.296V46.0382H74.4534V32.5871C74.4534 31.2533 74.4174 29.8844 74.348 28.4804H76.848L77.0067 30.4577H77.06C78.008 28.9679 79.4467 28.2243 81.3774 28.2243C82.8867 28.2243 84.1467 28.8054 85.1547 29.9689C86.1654 31.1337 86.6694 32.6651 86.6694 34.5644ZM83.7734 34.6658C83.7734 33.4516 83.4934 32.4506 82.9307 31.6628C82.316 30.8412 81.4907 30.4304 80.456 30.4304C79.7547 30.4304 79.1174 30.6592 78.548 31.1103C77.9774 31.5653 77.604 32.1594 77.4294 32.8952C77.3414 33.2384 77.2974 33.5192 77.2974 33.7402V35.8202C77.2974 36.7276 77.5827 37.4933 78.1534 38.1186C78.724 38.7439 79.4654 39.0559 80.3774 39.0559C81.448 39.0559 82.2814 38.6529 82.8774 37.8495C83.4747 37.0448 83.7734 35.984 83.7734 34.6658Z" fill="white"/>
<path d="M101.385 34.5644C101.385 36.686 100.797 38.363 99.62 39.5941C98.568 40.69 97.26 41.2373 95.6986 41.2373C94.0133 41.2373 92.8026 40.6471 92.0666 39.4667H92.0133V46.0382H89.1706V32.5871C89.1706 31.2533 89.1346 29.8844 89.0653 28.4804H91.5653L91.724 30.4577H91.7773C92.724 28.9679 94.1626 28.2243 96.0946 28.2243C97.6026 28.2243 98.8626 28.8054 99.8733 29.9689C100.88 31.1337 101.385 32.6651 101.385 34.5644ZM98.4893 34.6658C98.4893 33.4516 98.208 32.4506 97.6453 31.6628C97.0306 30.8412 96.208 30.4304 95.172 30.4304C94.4693 30.4304 93.8333 30.6592 93.2626 31.1103C92.692 31.5653 92.32 32.1594 92.1453 32.8952C92.0586 33.2384 92.0133 33.5192 92.0133 33.7402V35.8202C92.0133 36.7276 92.2986 37.4933 92.8666 38.1186C93.4373 38.7426 94.1786 39.0559 95.0933 39.0559C96.164 39.0559 96.9973 38.6529 97.5933 37.8495C98.1906 37.0448 98.4893 35.984 98.4893 34.6658Z" fill="white"/>
<path d="M117.839 36.1036C117.839 37.5752 117.315 38.7725 116.263 39.6968C115.107 40.7069 113.497 41.2113 111.429 41.2113C109.52 41.2113 107.989 40.8525 106.831 40.1336L107.489 37.8235C108.737 38.5593 110.107 38.9285 111.599 38.9285C112.669 38.9285 113.503 38.6919 114.101 38.2213C114.697 37.7507 114.995 37.1189 114.995 36.3311C114.995 35.6291 114.749 35.0376 114.257 34.5579C113.768 34.0782 112.951 33.6323 111.809 33.2202C108.703 32.0905 107.151 30.4356 107.151 28.2594C107.151 26.8372 107.695 25.6711 108.784 24.7637C109.869 23.855 111.317 23.4013 113.128 23.4013C114.743 23.4013 116.084 23.6756 117.155 24.2229L116.444 26.4823C115.444 25.9519 114.313 25.6867 113.048 25.6867C112.048 25.6867 111.267 25.9272 110.707 26.4056C110.233 26.8333 109.996 27.3546 109.996 27.9721C109.996 28.6559 110.267 29.2214 110.811 29.666C111.284 30.0768 112.144 30.5214 113.392 31.0011C114.919 31.6004 116.04 32.3011 116.761 33.1045C117.48 33.9053 117.839 34.9076 117.839 36.1036Z" fill="white"/>
<path d="M127.237 30.5604H124.104V36.6171C124.104 38.1576 124.656 38.9272 125.763 38.9272C126.271 38.9272 126.692 38.8843 127.025 38.7985L127.104 40.9032C126.544 41.1073 125.807 41.21 124.893 41.21C123.771 41.21 122.893 40.8759 122.26 40.209C121.629 39.5408 121.312 38.4202 121.312 36.8459V30.5578H119.445V28.4778H121.312V26.1937L124.104 25.3721V28.4778H127.237V30.5604Z" fill="white"/>
<path d="M141.375 34.6151C141.375 36.5326 140.812 38.1069 139.689 39.338C138.512 40.6055 136.949 41.2373 135.001 41.2373C133.124 41.2373 131.629 40.6302 130.515 39.416C129.4 38.2018 128.843 36.6691 128.843 34.8218C128.843 32.8887 129.416 31.3053 130.567 30.0742C131.715 28.8418 133.264 28.2256 135.212 28.2256C137.089 28.2256 138.6 28.8327 139.74 30.0482C140.831 31.2273 141.375 32.7496 141.375 34.6151ZM138.425 34.7048C138.425 33.5543 138.173 32.5676 137.663 31.7447C137.067 30.7489 136.215 30.2523 135.111 30.2523C133.968 30.2523 133.1 30.7502 132.504 31.7447C131.993 32.5689 131.741 33.5712 131.741 34.7568C131.741 35.9073 131.993 36.894 132.504 37.7156C133.119 38.7114 133.977 39.208 135.085 39.208C136.171 39.208 137.023 38.701 137.637 37.6896C138.161 36.8511 138.425 35.854 138.425 34.7048Z" fill="white"/>
<path d="M150.615 30.9179C150.333 30.8672 150.033 30.8412 149.719 30.8412C148.719 30.8412 147.945 31.2091 147.401 31.9462C146.928 32.5962 146.691 33.4178 146.691 34.4097V40.9552H143.849L143.876 32.409C143.876 30.9712 143.84 29.6621 143.769 28.4817H146.245L146.349 30.8685H146.428C146.728 30.0482 147.201 29.3878 147.849 28.8925C148.483 28.4466 149.167 28.2243 149.904 28.2243C150.167 28.2243 150.404 28.2425 150.615 28.275V30.9179Z" fill="white"/>
<path d="M163.328 34.1276C163.328 34.6242 163.295 35.0428 163.224 35.3847H154.696C154.729 36.6171 155.141 37.5596 155.933 38.2096C156.652 38.7907 157.581 39.0819 158.723 39.0819C159.985 39.0819 161.137 38.8856 162.173 38.4917L162.619 40.4157C161.408 40.9305 159.979 41.1866 158.329 41.1866C156.345 41.1866 154.788 40.6172 153.655 39.4797C152.524 38.3422 151.957 36.8147 151.957 34.8985C151.957 33.0174 152.484 31.4509 153.539 30.2016C154.643 28.8678 156.135 28.2009 158.012 28.2009C159.856 28.2009 161.252 28.8678 162.2 30.2016C162.951 31.2611 163.328 32.5715 163.328 34.1276ZM160.617 33.4087C160.636 32.5871 160.451 31.8773 160.065 31.278C159.573 30.5071 158.817 30.1223 157.8 30.1223C156.871 30.1223 156.115 30.498 155.537 31.252C155.064 31.8513 154.783 32.5702 154.696 33.4074H160.617V33.4087Z" fill="white"/>
</svg>
