<svg width="180" height="52" viewBox="0 0 180 52" fill="none" xmlns="http://www.w3.org/2000/svg">
<path d="M173.333 52H6.66667C3.00167 52 0 49.0734 0 45.5V6.5C0 2.92663 3.00167 2.74817e-06 6.66667 2.74817e-06H173.333C176.998 2.74817e-06 180 2.92663 180 6.5V45.5C180 49.0734 176.998 52 173.333 52Z" fill="black"/>
<path d="M62.1653 13.0117C62.1653 14.5418 61.6947 15.6936 60.7547 16.4671C59.884 17.1808 58.6467 17.5383 57.044 17.5383C56.2493 17.5383 55.5693 17.5045 55 17.4369V9.07664C55.7427 8.95964 56.5427 8.89984 57.4067 8.89984C58.9333 8.89984 60.084 9.22354 60.86 9.87094C61.7293 10.6028 62.1653 11.6493 62.1653 13.0117ZM60.692 13.0494C60.692 12.0575 60.4227 11.297 59.884 10.7666C59.3453 10.2375 58.5587 9.97234 57.5227 9.97234C57.0827 9.97234 56.708 10.0009 56.3973 10.0607V16.4164C56.5693 16.4424 56.884 16.4541 57.3413 16.4541C58.4107 16.4541 59.236 16.1642 59.8173 15.5844C60.3987 15.0046 60.692 14.1596 60.692 13.0494Z" fill="white"/>
<path d="M69.9773 14.3482C69.9773 15.2907 69.7013 16.0629 69.1493 16.6687C68.5706 17.2914 67.804 17.6021 66.8466 17.6021C65.924 17.6021 65.1893 17.3044 64.6413 16.7064C64.0946 16.1097 63.8213 15.357 63.8213 14.4496C63.8213 13.5006 64.1026 12.7219 64.668 12.1174C65.2333 11.5129 65.9933 11.21 66.9506 11.21C67.8733 11.21 68.6146 11.5077 69.176 12.1044C69.7093 12.6842 69.9773 13.433 69.9773 14.3482ZM68.528 14.3924C68.528 13.8269 68.4026 13.342 68.1533 12.9377C67.86 12.4489 67.4426 12.2045 66.9 12.2045C66.3386 12.2045 65.912 12.4489 65.6186 12.9377C65.368 13.342 65.244 13.8347 65.244 14.4171C65.244 14.9826 65.3693 15.4675 65.6186 15.8718C65.9213 16.3606 66.3426 16.605 66.8866 16.605C67.42 16.605 67.8386 16.3567 68.14 15.8588C68.3986 15.4467 68.528 14.9579 68.528 14.3924Z" fill="white"/>
<path d="M80.452 11.3347L78.4853 17.4629H77.2053L76.3907 14.8018C76.184 14.1375 76.016 13.4771 75.8853 12.8219H75.86C75.7387 13.4953 75.5707 14.1544 75.3547 14.8018L74.4893 17.4629H73.1947L71.3453 11.3347H72.7813L73.492 14.248C73.664 14.937 73.8053 15.5935 73.9187 16.2149H73.944C74.048 15.7027 74.22 15.0501 74.4627 14.261L75.3547 11.336H76.4933L77.348 14.1986C77.5547 14.8967 77.7227 15.5688 77.852 16.2162H77.8907C77.9853 15.5857 78.128 14.9136 78.3173 14.1986L79.08 11.336H80.452V11.3347Z" fill="white"/>
<path d="M87.696 17.463H86.2986V13.953C86.2986 12.8714 85.8773 12.3306 85.032 12.3306C84.6173 12.3306 84.2826 12.4788 84.0226 12.7765C83.7653 13.0742 83.6346 13.4252 83.6346 13.8269V17.4617H82.2373V13.0859C82.2373 12.5477 82.22 11.964 82.1866 11.3322H83.4146L83.48 12.2903H83.5186C83.6813 11.9926 83.924 11.7469 84.2426 11.5506C84.6213 11.3218 85.0453 11.2061 85.5093 11.2061C86.096 11.2061 86.584 11.3907 86.972 11.7612C87.4546 12.2149 87.696 12.8922 87.696 13.7918V17.463V17.463Z" fill="white"/>
<path d="M91.5493 17.4629H90.1533V8.52283H91.5493V17.4629Z" fill="white"/>
<path d="M99.776 14.3482C99.776 15.2907 99.5 16.0629 98.948 16.6687C98.3693 17.2914 97.6013 17.6021 96.6453 17.6021C95.7213 17.6021 94.9867 17.3044 94.44 16.7064C93.8933 16.1097 93.62 15.357 93.62 14.4496C93.62 13.5006 93.9013 12.7219 94.4667 12.1174C95.032 11.5129 95.792 11.21 96.748 11.21C97.672 11.21 98.412 11.5077 98.9747 12.1044C99.508 12.6842 99.776 13.433 99.776 14.3482ZM98.3253 14.3924C98.3253 13.8269 98.2 13.342 97.9507 12.9377C97.6587 12.4489 97.24 12.2045 96.6987 12.2045C96.136 12.2045 95.7093 12.4489 95.4173 12.9377C95.1667 13.342 95.0427 13.8347 95.0427 14.4171C95.0427 14.9826 95.168 15.4675 95.4173 15.8718C95.72 16.3606 96.1413 16.605 96.6853 16.605C97.2187 16.605 97.636 16.3567 97.9373 15.8588C98.1973 15.4467 98.3253 14.9579 98.3253 14.3924Z" fill="white"/>
<path d="M106.539 17.463H105.284L105.18 16.7571H105.141C104.712 17.32 104.1 17.6021 103.305 17.6021C102.712 17.6021 102.232 17.4162 101.871 17.047C101.543 16.7116 101.379 16.2943 101.379 15.799C101.379 15.0502 101.699 14.4795 102.343 14.0843C102.985 13.6891 103.889 13.4954 105.053 13.5045V13.3901C105.053 12.5828 104.619 12.1798 103.748 12.1798C103.128 12.1798 102.581 12.3319 102.109 12.6335L101.825 11.7391C102.409 11.3868 103.131 11.21 103.981 11.21C105.624 11.21 106.448 12.055 106.448 13.745V16.0018C106.448 16.6141 106.479 17.1016 106.539 17.463ZM105.088 15.357V14.4119C103.547 14.3859 102.776 14.798 102.776 15.6469C102.776 15.9667 102.864 16.2059 103.044 16.3658C103.224 16.5257 103.453 16.605 103.727 16.605C104.033 16.605 104.32 16.5101 104.581 16.3216C104.844 16.1318 105.005 15.8913 105.065 15.5962C105.08 15.5299 105.088 15.4493 105.088 15.357Z" fill="white"/>
<path d="M114.479 17.4629H113.239L113.173 16.4788H113.135C112.739 17.2276 112.064 17.602 111.116 17.602C110.359 17.602 109.728 17.3121 109.228 16.7323C108.728 16.1525 108.479 15.3998 108.479 14.4755C108.479 13.4836 108.749 12.6802 109.293 12.0666C109.82 11.4946 110.465 11.2086 111.233 11.2086C112.077 11.2086 112.668 11.4855 113.004 12.0406H113.031V8.52283H114.429V15.8119C114.429 16.4086 114.445 16.9585 114.479 17.4629ZM113.031 14.8785V13.8567C113.031 13.6799 113.017 13.5369 112.992 13.4277C112.913 13.1001 112.744 12.8245 112.487 12.6022C112.227 12.3799 111.913 12.2681 111.552 12.2681C111.031 12.2681 110.623 12.4696 110.323 12.8739C110.025 13.2782 109.875 13.7943 109.875 14.4248C109.875 15.0306 110.017 15.522 110.304 15.9003C110.607 16.3033 111.015 16.5048 111.525 16.5048C111.984 16.5048 112.351 16.3371 112.629 16.0004C112.899 15.6897 113.031 15.3153 113.031 14.8785Z" fill="white"/>
<path d="M126.429 14.3482C126.429 15.2907 126.153 16.0629 125.601 16.6687C125.023 17.2914 124.257 17.6021 123.299 17.6021C122.377 17.6021 121.643 17.3044 121.093 16.7064C120.547 16.1097 120.273 15.357 120.273 14.4496C120.273 13.5006 120.555 12.7219 121.12 12.1174C121.685 11.5129 122.445 11.21 123.404 11.21C124.325 11.21 125.068 11.5077 125.628 12.1044C126.161 12.6842 126.429 13.433 126.429 14.3482ZM124.981 14.3924C124.981 13.8269 124.856 13.342 124.607 12.9377C124.312 12.4489 123.896 12.2045 123.352 12.2045C122.792 12.2045 122.365 12.4489 122.071 12.9377C121.82 13.342 121.696 13.8347 121.696 14.4171C121.696 14.9826 121.821 15.4675 122.071 15.8718C122.373 16.3606 122.795 16.605 123.339 16.605C123.872 16.605 124.292 16.3567 124.593 15.8588C124.851 15.4467 124.981 14.9579 124.981 14.3924Z" fill="white"/>
<path d="M133.943 17.463H132.547V13.953C132.547 12.8714 132.125 12.3306 131.279 12.3306C130.864 12.3306 130.529 12.4788 130.271 12.7765C130.012 13.0742 129.883 13.4252 129.883 13.8269V17.4617H128.484V13.0859C128.484 12.5477 128.468 11.964 128.435 11.3322H129.661L129.727 12.2903H129.765C129.929 11.9926 130.172 11.7469 130.489 11.5506C130.869 11.3218 131.292 11.2061 131.757 11.2061C132.343 11.2061 132.831 11.3907 133.219 11.7612C133.703 12.2149 133.943 12.8922 133.943 13.7918V17.463V17.463Z" fill="white"/>
<path d="M143.347 12.3552H141.808V15.3322C141.808 16.0888 142.081 16.4671 142.623 16.4671C142.873 16.4671 143.081 16.4463 143.245 16.4034L143.281 17.4369C143.005 17.5383 142.643 17.589 142.196 17.589C141.644 17.589 141.215 17.4252 140.904 17.0976C140.592 16.77 140.437 16.2188 140.437 15.4453V12.3552H139.519V11.3347H140.437V10.2115L141.807 9.80853V11.3334H143.345V12.3552H143.347Z" fill="white"/>
<path d="M150.744 17.4629H149.345V13.9789C149.345 12.8804 148.924 12.3305 148.08 12.3305C147.432 12.3305 146.989 12.649 146.747 13.286C146.705 13.4199 146.681 13.5837 146.681 13.7761V17.4616H145.285V8.52283H146.681V12.2161H146.708C147.148 11.544 147.779 11.2086 148.596 11.2086C149.175 11.2086 149.653 11.3932 150.033 11.7637C150.507 12.2252 150.744 12.9116 150.744 13.819V17.4629V17.4629Z" fill="white"/>
<path d="M158.375 14.1089C158.375 14.3533 158.356 14.5587 158.323 14.7264H154.132C154.151 15.3322 154.351 15.7937 154.739 16.1135C155.093 16.3995 155.551 16.5425 156.111 16.5425C156.731 16.5425 157.296 16.4463 157.805 16.2526L158.024 17.199C157.428 17.4512 156.727 17.5773 155.915 17.5773C154.941 17.5773 154.175 17.2978 153.62 16.7388C153.063 16.1798 152.787 15.4297 152.787 14.4885C152.787 13.5642 153.044 12.7946 153.563 12.181C154.104 11.5258 154.836 11.1982 155.76 11.1982C156.664 11.1982 157.351 11.5258 157.815 12.181C158.189 12.701 158.375 13.3445 158.375 14.1089ZM157.041 13.7566C157.052 13.3523 156.96 13.0039 156.771 12.7101C156.528 12.3318 156.159 12.142 155.659 12.142C155.203 12.142 154.831 12.3266 154.547 12.6971C154.315 12.9922 154.177 13.3445 154.132 13.7566H157.041Z" fill="white"/>
<path d="M173.333 1.04162C176.42 1.04162 178.932 3.4905 178.932 6.5V45.5C178.932 48.5095 176.42 50.9584 173.333 50.9584H6.66667C3.58 50.9584 1.06833 48.5095 1.06833 45.5V6.5C1.06833 3.4905 3.58 1.04162 6.66667 1.04162H173.333ZM173.333 2.74817e-06H6.66667C3.00167 2.74817e-06 0 2.92663 0 6.5V45.5C0 49.0734 3.00167 52 6.66667 52H173.333C176.998 52 180 49.0734 180 45.5V6.5C180 2.92663 176.998 2.74817e-06 173.333 2.74817e-06Z" fill="#A6A6A6"/>
<path d="M13.9134 9.80032C13.5217 10.2001 13.295 10.8224 13.295 11.6284V40.3779C13.295 41.1839 13.5217 41.8063 13.9134 42.2061L14.01 42.2938L30.5334 26.1901V25.8098L14.01 9.70607L13.9134 9.80032Z" fill="url(#paint0_linear_302_183)"/>
<path d="M36.035 31.5607L30.5333 26.1901V25.8099L36.0417 20.4392L36.165 20.5091L42.6883 24.128C44.55 25.155 44.55 26.845 42.6883 27.8785L36.165 31.4909L36.035 31.5607Z" fill="url(#paint1_linear_302_183)"/>
<path d="M36.165 31.4908L30.5333 26L13.9133 42.2061C14.5317 42.8398 15.54 42.9162 16.6867 42.2825L36.165 31.4908Z" fill="url(#paint2_linear_302_183)"/>
<path d="M36.165 20.5091L16.6867 9.71751C15.54 9.09025 14.5317 9.16663 13.9133 9.80038L30.5333 26L36.165 20.5091Z" fill="url(#paint3_linear_302_183)"/>
<path d="M91.1267 28.2783C87.995 28.2783 85.4367 30.602 85.4367 33.8082C85.4367 36.9883 87.995 39.3364 91.1267 39.3364C94.265 39.3364 96.8233 36.9883 96.8233 33.8082C96.8233 30.602 94.265 28.2783 91.1267 28.2783ZM91.1267 37.1589C89.4083 37.1589 87.93 35.776 87.93 33.8082C87.93 31.8143 89.4083 30.4558 91.1267 30.4558C92.845 30.4558 94.33 31.8143 94.33 33.8082C94.33 35.776 92.845 37.1589 91.1267 37.1589ZM78.7117 28.2783C75.5733 28.2783 73.0217 30.602 73.0217 33.8082C73.0217 36.9883 75.5733 39.3364 78.7117 39.3364C81.8483 39.3364 84.4017 36.9883 84.4017 33.8082C84.4017 30.602 81.8483 28.2783 78.7117 28.2783ZM78.7117 37.1589C76.9917 37.1589 75.5083 35.776 75.5083 33.8082C75.5083 31.8143 76.9917 30.4558 78.7117 30.4558C80.43 30.4558 81.9083 31.8143 81.9083 33.8082C81.9083 35.776 80.43 37.1589 78.7117 37.1589ZM63.9383 29.9732V32.3229H69.6933C69.525 33.6359 69.075 34.6012 68.385 35.2739C67.545 36.0864 66.2367 36.9883 63.9383 36.9883C60.3967 36.9883 57.6233 34.2014 57.6233 30.7483C57.6233 27.2952 60.3967 24.5083 63.9383 24.5083C65.8533 24.5083 67.2467 25.2379 68.275 26.1837L69.9733 24.5278C68.535 23.1888 66.6217 22.1602 63.9383 22.1602C59.0817 22.1602 55 26.013 55 30.7483C55 35.4835 59.0817 39.3364 63.9383 39.3364C66.5633 39.3364 68.535 38.4979 70.085 36.9249C71.6733 35.3763 72.1683 33.1988 72.1683 31.4405C72.1683 30.8945 72.1217 30.3924 72.0383 29.9732H63.9383ZM124.348 31.7948C123.88 30.5582 122.435 28.2783 119.492 28.2783C116.575 28.2783 114.147 30.5192 114.147 33.8082C114.147 36.9054 116.55 39.3364 119.772 39.3364C122.377 39.3364 123.88 37.7878 124.498 36.8859L122.565 35.6298C121.92 36.5495 121.042 37.1589 119.772 37.1589C118.51 37.1589 117.605 36.595 117.025 35.4835L124.61 32.4237L124.348 31.7948ZM116.615 33.6359C116.55 31.5039 118.313 30.4119 119.577 30.4119C120.567 30.4119 121.407 30.8945 121.687 31.5852L116.615 33.6359ZM110.45 39H112.943V22.75H110.45V39ZM106.367 29.51H106.283C105.723 28.8633 104.655 28.2783 103.302 28.2783C100.462 28.2783 97.865 30.7093 97.865 33.826C97.865 36.9249 100.462 39.3364 103.302 39.3364C104.655 39.3364 105.723 38.7465 106.283 38.0803H106.367V38.8733C106.367 40.9874 105.208 42.1233 103.34 42.1233C101.817 42.1233 100.872 41.0508 100.482 40.1489L98.3133 41.0313C98.9383 42.497 100.593 44.3008 103.34 44.3008C106.263 44.3008 108.73 42.6238 108.73 38.5434V28.6147H106.367V29.51ZM103.515 37.1589C101.797 37.1589 100.358 35.7565 100.358 33.826C100.358 31.8777 101.797 30.4558 103.515 30.4558C105.208 30.4558 106.543 31.8777 106.543 33.826C106.543 35.7565 105.208 37.1589 103.515 37.1589ZM136.022 22.75H130.058V39H132.545V32.8429H136.022C138.783 32.8429 141.492 30.8945 141.492 27.7957C141.492 24.6984 138.777 22.75 136.022 22.75ZM136.087 30.5825H132.545V25.0104H136.087C137.943 25.0104 139.003 26.5135 139.003 27.7957C139.003 29.0534 137.943 30.5825 136.087 30.5825ZM151.458 28.2474C149.662 28.2474 147.793 29.0209 147.025 30.7353L149.232 31.6372C149.707 30.7353 150.58 30.4428 151.503 30.4428C152.793 30.4428 154.102 31.1984 154.122 32.5325V32.7032C153.672 32.4497 152.708 32.0743 151.523 32.0743C149.147 32.0743 146.725 33.3499 146.725 35.7305C146.725 37.908 148.672 39.3104 150.86 39.3104C152.533 39.3104 153.457 38.5743 154.037 37.7179H154.122V38.974H156.523V32.7405C156.523 29.8594 154.317 28.2474 151.458 28.2474ZM151.158 37.1524C150.345 37.1524 149.212 36.7592 149.212 35.776C149.212 34.5183 150.625 34.0357 151.848 34.0357C152.943 34.0357 153.457 34.2713 154.122 34.5817C153.927 36.0864 152.598 37.1524 151.158 37.1524ZM165.273 28.6033L162.415 35.6477H162.33L159.375 28.6033H156.693L161.133 38.4475L158.6 43.9254H161.198L168.04 28.6033H165.273ZM142.858 39H145.352V22.75H142.858V39Z" fill="white"/>
<defs>
<linearGradient id="paint0_linear_302_183" x1="29.0663" y1="40.6773" x2="7.25617" y2="18.308" gradientUnits="userSpaceOnUse">
<stop stop-color="#00A0FF"/>
<stop offset="0.0066" stop-color="#00A1FF"/>
<stop offset="0.2601" stop-color="#00BEFF"/>
<stop offset="0.5122" stop-color="#00D2FF"/>
<stop offset="0.7604" stop-color="#00DFFF"/>
<stop offset="1" stop-color="#00E3FF"/>
</linearGradient>
<linearGradient id="paint1_linear_302_183" x1="45.1125" y1="25.9982" x2="12.85" y2="25.9982" gradientUnits="userSpaceOnUse">
<stop stop-color="#FFE000"/>
<stop offset="0.4087" stop-color="#FFBD00"/>
<stop offset="0.7754" stop-color="#FFA500"/>
<stop offset="1" stop-color="#FF9C00"/>
</linearGradient>
<linearGradient id="paint2_linear_302_183" x1="33.1027" y1="23.015" x2="3.52635" y2="-7.31963" gradientUnits="userSpaceOnUse">
<stop stop-color="#FF3A44"/>
<stop offset="1" stop-color="#C31162"/>
</linearGradient>
<linearGradient id="paint3_linear_302_183" x1="9.72973" y1="51.7709" x2="22.9369" y2="38.2253" gradientUnits="userSpaceOnUse">
<stop stop-color="#32A071"/>
<stop offset="0.0685" stop-color="#2DA771"/>
<stop offset="0.4762" stop-color="#15CF74"/>
<stop offset="0.8009" stop-color="#06E775"/>
<stop offset="1" stop-color="#00F076"/>
</linearGradient>
</defs>
</svg>
