<svg width="62" height="54" viewBox="0 0 62 54" fill="none" xmlns="http://www.w3.org/2000/svg">
<path opacity="0.4" d="M6.69466 0H40.5441C44.2299 0 47.2387 3.00884 47.2387 6.69466V41.522C47.2387 45.2078 44.2299 48.2166 40.5441 48.2166H6.69466C3.00884 48.2166 0 45.2078 0 41.522V6.61944C0 3.00884 3.00884 0 6.69466 0Z" fill="#1F7EA0"/>
<path d="M21.8893 31.518L11.9601 21.5888L0 33.549V36.0313V41.4472C0 45.133 3.00884 48.1418 6.69466 48.1418H40.5441C44.2299 48.1418 47.2387 45.133 47.2387 41.4472V36.0313V28.5844L36.0308 17.3013L21.8893 31.518Z" fill="#1F7EA0"/>
<path d="M21.5883 20.1584C23.9148 20.1584 25.8007 18.2724 25.8007 15.946C25.8007 13.6196 23.9148 11.7336 21.5883 11.7336C19.2619 11.7336 17.376 13.6196 17.376 15.946C17.376 18.2724 19.2619 20.1584 21.5883 20.1584Z" fill="white"/>
<path d="M47.2386 52.4989C54.0492 52.4989 59.5704 46.9777 59.5704 40.167C59.5704 33.3564 54.0492 27.8352 47.2386 27.8352C40.4279 27.8352 34.9067 33.3564 34.9067 40.167C34.9067 46.9777 40.4279 52.4989 47.2386 52.4989Z" fill="#6FC393" stroke="white" stroke-width="3"/>
<path d="M46.1208 36.6239C46.1208 35.9852 46.5999 35.5062 47.2386 35.5062C47.824 35.5062 48.3563 35.9852 48.3563 36.6239V43.8624C48.3563 44.5011 47.8773 44.9801 47.2386 44.9801C46.5999 44.9801 46.1208 44.5011 46.1208 43.8624V36.6239Z" fill="white"/>
<path d="M46.4402 37.369C46.0144 36.9432 46.0144 36.2513 46.4402 35.8255C46.866 35.3997 47.5579 35.3997 47.9837 35.8255L51.7688 39.6106C52.1946 40.0364 52.1946 40.7283 51.7688 41.1541C51.343 41.5799 50.6511 41.5799 50.2253 41.1541L46.4402 37.369Z" fill="white"/>
<path d="M46.4404 35.8254C46.8662 35.3996 47.5581 35.3996 47.9839 35.8254C48.4097 36.2512 48.4097 36.9431 47.9839 37.3689L44.252 41.1539C43.8262 41.5797 43.1343 41.5797 42.7085 41.1539C42.2827 40.7281 42.2827 40.0362 42.7085 39.6104L46.4404 35.8254Z" fill="white"/>
</svg>
